# xmcd CD database file
#
# Track frame offsets:
#	150
#	17037
#	31577
#	55803
#	99986
#	129127
#	177903
#	210343
#	221009
#	252943
#
# Disc length: 3519 seconds
#
# Revision: 0
# Processed by: cddbd v1.5.2PL0 Copyright (c) Steve Scherf et al.
# Submitted via: Feurio! 1.68 - http://www.feurio.com
#
DISCID=780dbd0a
DTITLE=Albert King    - Ohne Filter - Musik Pur Baden, Germany   07-18-92
DYEAR=1900
DGENRE=
TTITLE0=introductions > instrumental
TTITLE1=Changes
TTITLE2=I Wonder Why
TTITLE3=The Sky Is Crying
TTITLE4=I'll Play The Blues For You
TTITLE5=Stormy Monday
TTITLE6=Born Under A Bad Sign
TTITLE7=instrumental
TTITLE8=As The Years Go Passing By
TTITLE9=Overall Junction
EXTD=
EXTT0=
EXTT1=
EXTT2=
EXTT3=
EXTT4=
EXTT5=
EXTT6=
EXTT7=
EXTT8=
EXTT9=
PLAYORDER=
